<?xml version="1.0" standalone="no"?>
<!DOCTYPE svg PUBLIC "-//W3C//DTD SVG 20010904//EN"
 "http://www.w3.org/TR/2001/REC-SVG-20010904/DTD/svg10.dtd">
<svg version="1.0" xmlns="http://www.w3.org/2000/svg"
 width="337.000000pt" height="318.000000pt" viewBox="0 0 337.000000 318.000000"
 preserveAspectRatio="xMidYMid meet">

<g transform="translate(0.000000,318.000000) scale(0.100000,-0.100000)"
fill="#000000" stroke="none">
<path d="M1098 2864 c-36 -19 -65 -78 -79 -156 -16 -90 -23 -563 -9 -610 l10
-37 98 6 c53 3 102 9 108 14 8 7 10 82 7 267 -5 245 -5 258 14 281 22 27 24
27 154 -24 69 -27 79 -19 79 64 0 117 -8 126 -150 169 -72 23 -162 42 -188 42
-9 -1 -29 -8 -44 -16z"/>
<path d="M1347 2323 c3 -109 6 -199 7 -200 2 -2 107 11 221 27 33 5 130 14
215 19 154 10 211 17 385 46 50 8 111 14 138 15 26 0 47 5 47 10 0 6 -14 10
-31 10 -17 0 -39 5 -50 10 -11 6 -40 12 -64 14 -24 1 -48 5 -51 9 -4 4 -18 7
-31 7 -14 0 -32 4 -42 9 -10 6 -35 12 -57 15 -65 8 -108 17 -129 27 -11 5 -65
20 -120 34 -109 28 -183 51 -230 71 -16 7 -43 16 -60 20 -16 4 -52 18 -80 31
-27 12 -55 23 -62 23 -9 0 -11 -47 -6 -197z"/>
<path d="M2412 2478 c3 -7 29 -28 59 -46 68 -41 185 -136 205 -168 15 -22 15
-26 0 -48 -12 -20 -27 -26 -73 -31 -32 -3 -98 -10 -148 -15 -49 -5 -157 -17
-240 -25 -164 -17 -263 -29 -400 -50 -49 -8 -146 -21 -215 -29 -297 -36 -470
-56 -540 -61 -41 -4 -121 -17 -178 -31 -57 -13 -111 -24 -121 -24 -9 0 -48
-15 -87 -34 -139 -66 -182 -160 -191 -413 -4 -115 -3 -156 7 -168 22 -27 82
-18 270 38 95 28 385 79 558 98 233 25 351 -7 407 -111 24 -46 30 -70 33 -142
6 -126 -18 -187 -100 -256 -51 -42 -81 -57 -167 -86 -132 -43 -165 -49 -431
-81 -256 -31 -377 -49 -485 -73 -113 -26 -113 -24 -84 -262 19 -153 67 -221
164 -235 39 -6 203 7 315 25 30 4 132 20 225 34 94 14 208 32 255 41 47 8 173
29 280 45 107 17 278 45 380 62 102 17 201 32 220 35 228 25 407 56 445 75 51
27 104 81 135 140 34 62 34 65 40 228 3 91 5 408 5 705 l-1 540 -28 70 c-30
76 -59 107 -147 159 -68 41 -124 59 -258 86 -122 24 -114 23 -109 8z"/>
<path d="M347 1416 c-60 -30 -102 -69 -130 -121 -18 -35 -21 -57 -22 -170 0
-128 0 -131 30 -175 17 -24 50 -58 74 -75 l43 -30 161 1 c116 1 199 7 292 23
72 12 177 28 235 37 431 65 538 96 572 167 9 19 20 62 23 94 9 78 -9 122 -66
160 -40 26 -50 28 -136 27 -51 -1 -134 -9 -185 -19 -51 -9 -149 -27 -218 -40
-212 -40 -379 -59 -522 -60 -156 0 -166 4 -175 72 -5 37 -2 42 41 80 67 59 62
68 -17 29z m1135 -187 c33 -38 36 -76 7 -113 -32 -40 -83 -58 -130 -46 -53 14
-73 47 -65 103 14 95 125 128 188 56z"/>
</g>
</svg>
